<mxfile host="app.diagrams.net" modified="2023-11-20T12:35:53.790Z" agent="Mozilla/5.0 (Macintosh; Intel Mac OS X 10_15_7) AppleWebKit/537.36 (KHTML, like Gecko) Chrome/119.0.0.0 Safari/537.36" etag="k8DlTTuVoy5nYIWUpY6z" version="22.1.3" type="github">
  <diagram name="第 1 页" id="QRqXihMADhNC4GcBK6MP">
    <mxGraphModel dx="2049" dy="920" grid="1" gridSize="10" guides="1" tooltips="1" connect="1" arrows="1" fold="1" page="1" pageScale="1" pageWidth="827" pageHeight="1169" math="0" shadow="0">
      <root>
        <mxCell id="0" />
        <mxCell id="1" parent="0" />
        <mxCell id="jC5KR1oz6UxNJPEy1PF8-43" value="" style="edgeStyle=orthogonalEdgeStyle;rounded=0;orthogonalLoop=1;jettySize=auto;html=1;" edge="1" parent="1" source="jC5KR1oz6UxNJPEy1PF8-1" target="jC5KR1oz6UxNJPEy1PF8-2">
          <mxGeometry relative="1" as="geometry" />
        </mxCell>
        <mxCell id="jC5KR1oz6UxNJPEy1PF8-1" value="查骑手背单id List" style="whiteSpace=wrap;html=1;" vertex="1" parent="1">
          <mxGeometry x="1300" y="470" width="120" height="60" as="geometry" />
        </mxCell>
        <mxCell id="jC5KR1oz6UxNJPEy1PF8-44" value="" style="edgeStyle=orthogonalEdgeStyle;rounded=0;orthogonalLoop=1;jettySize=auto;html=1;" edge="1" parent="1" source="jC5KR1oz6UxNJPEy1PF8-2" target="jC5KR1oz6UxNJPEy1PF8-26">
          <mxGeometry relative="1" as="geometry" />
        </mxCell>
        <mxCell id="jC5KR1oz6UxNJPEy1PF8-2" value="查运单详情" style="whiteSpace=wrap;html=1;" vertex="1" parent="1">
          <mxGeometry x="1300" y="590" width="120" height="60" as="geometry" />
        </mxCell>
        <mxCell id="jC5KR1oz6UxNJPEy1PF8-7" style="edgeStyle=orthogonalEdgeStyle;rounded=0;orthogonalLoop=1;jettySize=auto;html=1;entryX=0.5;entryY=0;entryDx=0;entryDy=0;" edge="1" parent="1" source="jC5KR1oz6UxNJPEy1PF8-3" target="jC5KR1oz6UxNJPEy1PF8-4">
          <mxGeometry relative="1" as="geometry">
            <Array as="points">
              <mxPoint x="610" y="130" />
              <mxPoint x="170" y="130" />
            </Array>
          </mxGeometry>
        </mxCell>
        <mxCell id="jC5KR1oz6UxNJPEy1PF8-10" style="edgeStyle=orthogonalEdgeStyle;rounded=0;orthogonalLoop=1;jettySize=auto;html=1;" edge="1" parent="1" source="jC5KR1oz6UxNJPEy1PF8-3" target="jC5KR1oz6UxNJPEy1PF8-5">
          <mxGeometry relative="1" as="geometry">
            <Array as="points">
              <mxPoint x="610" y="130" />
              <mxPoint x="1030" y="130" />
            </Array>
          </mxGeometry>
        </mxCell>
        <mxCell id="jC5KR1oz6UxNJPEy1PF8-3" value="开始" style="rounded=0;whiteSpace=wrap;html=1;" vertex="1" parent="1">
          <mxGeometry x="550" y="30" width="120" height="60" as="geometry" />
        </mxCell>
        <mxCell id="jC5KR1oz6UxNJPEy1PF8-17" value="" style="edgeStyle=orthogonalEdgeStyle;rounded=0;orthogonalLoop=1;jettySize=auto;html=1;" edge="1" parent="1" source="jC5KR1oz6UxNJPEy1PF8-4" target="jC5KR1oz6UxNJPEy1PF8-16">
          <mxGeometry relative="1" as="geometry" />
        </mxCell>
        <mxCell id="jC5KR1oz6UxNJPEy1PF8-4" value="预定单" style="whiteSpace=wrap;html=1;" vertex="1" parent="1">
          <mxGeometry x="110" y="180" width="120" height="60" as="geometry" />
        </mxCell>
        <mxCell id="jC5KR1oz6UxNJPEy1PF8-39" style="edgeStyle=orthogonalEdgeStyle;rounded=0;orthogonalLoop=1;jettySize=auto;html=1;entryX=0.5;entryY=0;entryDx=0;entryDy=0;" edge="1" parent="1" source="jC5KR1oz6UxNJPEy1PF8-5" target="jC5KR1oz6UxNJPEy1PF8-15">
          <mxGeometry relative="1" as="geometry">
            <Array as="points">
              <mxPoint x="1030" y="290" />
              <mxPoint x="1550" y="290" />
            </Array>
          </mxGeometry>
        </mxCell>
        <mxCell id="jC5KR1oz6UxNJPEy1PF8-40" style="edgeStyle=orthogonalEdgeStyle;rounded=0;orthogonalLoop=1;jettySize=auto;html=1;" edge="1" parent="1" source="jC5KR1oz6UxNJPEy1PF8-5" target="jC5KR1oz6UxNJPEy1PF8-13">
          <mxGeometry relative="1" as="geometry">
            <Array as="points">
              <mxPoint x="1030" y="290" />
              <mxPoint x="860" y="290" />
            </Array>
          </mxGeometry>
        </mxCell>
        <mxCell id="jC5KR1oz6UxNJPEy1PF8-42" style="edgeStyle=orthogonalEdgeStyle;rounded=0;orthogonalLoop=1;jettySize=auto;html=1;entryX=0.5;entryY=0;entryDx=0;entryDy=0;" edge="1" parent="1" source="jC5KR1oz6UxNJPEy1PF8-5" target="jC5KR1oz6UxNJPEy1PF8-12">
          <mxGeometry relative="1" as="geometry">
            <Array as="points">
              <mxPoint x="1030" y="290" />
              <mxPoint x="670" y="290" />
            </Array>
          </mxGeometry>
        </mxCell>
        <mxCell id="jC5KR1oz6UxNJPEy1PF8-5" value="&amp;nbsp;即时单" style="whiteSpace=wrap;html=1;" vertex="1" parent="1">
          <mxGeometry x="970" y="180" width="120" height="60" as="geometry" />
        </mxCell>
        <mxCell id="jC5KR1oz6UxNJPEy1PF8-12" value="非动态T场景" style="whiteSpace=wrap;html=1;" vertex="1" parent="1">
          <mxGeometry x="610" y="350" width="120" height="60" as="geometry" />
        </mxCell>
        <mxCell id="jC5KR1oz6UxNJPEy1PF8-54" value="" style="edgeStyle=orthogonalEdgeStyle;rounded=0;orthogonalLoop=1;jettySize=auto;html=1;" edge="1" parent="1" source="jC5KR1oz6UxNJPEy1PF8-13" target="jC5KR1oz6UxNJPEy1PF8-22">
          <mxGeometry relative="1" as="geometry" />
        </mxCell>
        <mxCell id="jC5KR1oz6UxNJPEy1PF8-13" value="智能调度专送动态T" style="whiteSpace=wrap;html=1;" vertex="1" parent="1">
          <mxGeometry x="800" y="350" width="120" height="60" as="geometry" />
        </mxCell>
        <mxCell id="jC5KR1oz6UxNJPEy1PF8-37" style="edgeStyle=orthogonalEdgeStyle;rounded=0;orthogonalLoop=1;jettySize=auto;html=1;entryX=0.5;entryY=0;entryDx=0;entryDy=0;" edge="1" parent="1" source="jC5KR1oz6UxNJPEy1PF8-14" target="jC5KR1oz6UxNJPEy1PF8-1">
          <mxGeometry relative="1" as="geometry">
            <Array as="points">
              <mxPoint x="1210" y="430" />
              <mxPoint x="1360" y="430" />
            </Array>
          </mxGeometry>
        </mxCell>
        <mxCell id="jC5KR1oz6UxNJPEy1PF8-14" value="众包动态T" style="whiteSpace=wrap;html=1;" vertex="1" parent="1">
          <mxGeometry x="1150" y="350" width="120" height="60" as="geometry" />
        </mxCell>
        <mxCell id="jC5KR1oz6UxNJPEy1PF8-38" style="edgeStyle=orthogonalEdgeStyle;rounded=0;orthogonalLoop=1;jettySize=auto;html=1;entryX=0.5;entryY=0;entryDx=0;entryDy=0;" edge="1" parent="1" source="jC5KR1oz6UxNJPEy1PF8-15" target="jC5KR1oz6UxNJPEy1PF8-1">
          <mxGeometry relative="1" as="geometry">
            <Array as="points">
              <mxPoint x="1550" y="430" />
              <mxPoint x="1360" y="430" />
            </Array>
          </mxGeometry>
        </mxCell>
        <mxCell id="jC5KR1oz6UxNJPEy1PF8-15" value="专送动态T" style="whiteSpace=wrap;html=1;" vertex="1" parent="1">
          <mxGeometry x="1490" y="350" width="120" height="60" as="geometry" />
        </mxCell>
        <mxCell id="jC5KR1oz6UxNJPEy1PF8-19" value="" style="edgeStyle=orthogonalEdgeStyle;rounded=0;orthogonalLoop=1;jettySize=auto;html=1;" edge="1" parent="1" source="jC5KR1oz6UxNJPEy1PF8-16" target="jC5KR1oz6UxNJPEy1PF8-18">
          <mxGeometry relative="1" as="geometry" />
        </mxCell>
        <mxCell id="jC5KR1oz6UxNJPEy1PF8-16" value="查运单" style="whiteSpace=wrap;html=1;" vertex="1" parent="1">
          <mxGeometry x="110" y="310" width="120" height="60" as="geometry" />
        </mxCell>
        <mxCell id="jC5KR1oz6UxNJPEy1PF8-21" value="" style="edgeStyle=orthogonalEdgeStyle;rounded=0;orthogonalLoop=1;jettySize=auto;html=1;" edge="1" parent="1" source="jC5KR1oz6UxNJPEy1PF8-18" target="jC5KR1oz6UxNJPEy1PF8-20">
          <mxGeometry relative="1" as="geometry" />
        </mxCell>
        <mxCell id="jC5KR1oz6UxNJPEy1PF8-18" value="过兜底T" style="whiteSpace=wrap;html=1;" vertex="1" parent="1">
          <mxGeometry x="110" y="430" width="120" height="60" as="geometry" />
        </mxCell>
        <mxCell id="jC5KR1oz6UxNJPEy1PF8-20" value="结束" style="whiteSpace=wrap;html=1;" vertex="1" parent="1">
          <mxGeometry x="110" y="550" width="120" height="60" as="geometry" />
        </mxCell>
        <mxCell id="jC5KR1oz6UxNJPEy1PF8-55" value="" style="edgeStyle=orthogonalEdgeStyle;rounded=0;orthogonalLoop=1;jettySize=auto;html=1;" edge="1" parent="1" source="jC5KR1oz6UxNJPEy1PF8-22" target="jC5KR1oz6UxNJPEy1PF8-24">
          <mxGeometry relative="1" as="geometry" />
        </mxCell>
        <mxCell id="jC5KR1oz6UxNJPEy1PF8-22" value="询模型" style="whiteSpace=wrap;html=1;" vertex="1" parent="1">
          <mxGeometry x="800" y="460" width="120" height="60" as="geometry" />
        </mxCell>
        <mxCell id="jC5KR1oz6UxNJPEy1PF8-57" value="" style="edgeStyle=orthogonalEdgeStyle;rounded=0;orthogonalLoop=1;jettySize=auto;html=1;" edge="1" parent="1" source="jC5KR1oz6UxNJPEy1PF8-23" target="jC5KR1oz6UxNJPEy1PF8-25">
          <mxGeometry relative="1" as="geometry" />
        </mxCell>
        <mxCell id="jC5KR1oz6UxNJPEy1PF8-23" value="加T" style="whiteSpace=wrap;html=1;" vertex="1" parent="1">
          <mxGeometry x="800" y="670" width="120" height="60" as="geometry" />
        </mxCell>
        <mxCell id="jC5KR1oz6UxNJPEy1PF8-56" value="" style="edgeStyle=orthogonalEdgeStyle;rounded=0;orthogonalLoop=1;jettySize=auto;html=1;" edge="1" parent="1" source="jC5KR1oz6UxNJPEy1PF8-24" target="jC5KR1oz6UxNJPEy1PF8-23">
          <mxGeometry relative="1" as="geometry" />
        </mxCell>
        <mxCell id="jC5KR1oz6UxNJPEy1PF8-24" value="兜底T" style="whiteSpace=wrap;html=1;" vertex="1" parent="1">
          <mxGeometry x="800" y="570" width="120" height="60" as="geometry" />
        </mxCell>
        <mxCell id="jC5KR1oz6UxNJPEy1PF8-25" value="不小于用户T校验" style="whiteSpace=wrap;html=1;" vertex="1" parent="1">
          <mxGeometry x="800" y="780" width="120" height="60" as="geometry" />
        </mxCell>
        <mxCell id="jC5KR1oz6UxNJPEy1PF8-45" style="edgeStyle=orthogonalEdgeStyle;rounded=0;orthogonalLoop=1;jettySize=auto;html=1;" edge="1" parent="1" source="jC5KR1oz6UxNJPEy1PF8-26" target="jC5KR1oz6UxNJPEy1PF8-27">
          <mxGeometry relative="1" as="geometry">
            <Array as="points">
              <mxPoint x="1360" y="800" />
              <mxPoint x="1210" y="800" />
            </Array>
          </mxGeometry>
        </mxCell>
        <mxCell id="jC5KR1oz6UxNJPEy1PF8-49" style="edgeStyle=orthogonalEdgeStyle;rounded=0;orthogonalLoop=1;jettySize=auto;html=1;" edge="1" parent="1" source="jC5KR1oz6UxNJPEy1PF8-26" target="jC5KR1oz6UxNJPEy1PF8-33">
          <mxGeometry relative="1" as="geometry">
            <Array as="points">
              <mxPoint x="1360" y="800" />
              <mxPoint x="1450" y="800" />
            </Array>
          </mxGeometry>
        </mxCell>
        <mxCell id="jC5KR1oz6UxNJPEy1PF8-26" value="查T信息" style="whiteSpace=wrap;html=1;" vertex="1" parent="1">
          <mxGeometry x="1300" y="710" width="120" height="60" as="geometry" />
        </mxCell>
        <mxCell id="jC5KR1oz6UxNJPEy1PF8-46" value="" style="edgeStyle=orthogonalEdgeStyle;rounded=0;orthogonalLoop=1;jettySize=auto;html=1;" edge="1" parent="1" source="jC5KR1oz6UxNJPEy1PF8-27" target="jC5KR1oz6UxNJPEy1PF8-28">
          <mxGeometry relative="1" as="geometry" />
        </mxCell>
        <mxCell id="jC5KR1oz6UxNJPEy1PF8-27" value="查停止加价" style="whiteSpace=wrap;html=1;" vertex="1" parent="1">
          <mxGeometry x="1150" y="830" width="120" height="60" as="geometry" />
        </mxCell>
        <mxCell id="jC5KR1oz6UxNJPEy1PF8-47" value="" style="edgeStyle=orthogonalEdgeStyle;rounded=0;orthogonalLoop=1;jettySize=auto;html=1;" edge="1" parent="1" source="jC5KR1oz6UxNJPEy1PF8-28" target="jC5KR1oz6UxNJPEy1PF8-29">
          <mxGeometry relative="1" as="geometry" />
        </mxCell>
        <mxCell id="jC5KR1oz6UxNJPEy1PF8-28" value="构造入参" style="whiteSpace=wrap;html=1;" vertex="1" parent="1">
          <mxGeometry x="1150" y="940" width="120" height="60" as="geometry" />
        </mxCell>
        <mxCell id="jC5KR1oz6UxNJPEy1PF8-48" value="" style="edgeStyle=orthogonalEdgeStyle;rounded=0;orthogonalLoop=1;jettySize=auto;html=1;" edge="1" parent="1" source="jC5KR1oz6UxNJPEy1PF8-29" target="jC5KR1oz6UxNJPEy1PF8-30">
          <mxGeometry relative="1" as="geometry" />
        </mxCell>
        <mxCell id="jC5KR1oz6UxNJPEy1PF8-29" value="询模型" style="whiteSpace=wrap;html=1;" vertex="1" parent="1">
          <mxGeometry x="1150" y="1050" width="120" height="60" as="geometry" />
        </mxCell>
        <mxCell id="jC5KR1oz6UxNJPEy1PF8-53" value="" style="edgeStyle=orthogonalEdgeStyle;rounded=0;orthogonalLoop=1;jettySize=auto;html=1;" edge="1" parent="1" source="jC5KR1oz6UxNJPEy1PF8-30" target="jC5KR1oz6UxNJPEy1PF8-31">
          <mxGeometry relative="1" as="geometry" />
        </mxCell>
        <mxCell id="jC5KR1oz6UxNJPEy1PF8-30" value="过兜底T" style="whiteSpace=wrap;html=1;" vertex="1" parent="1">
          <mxGeometry x="1150" y="1169" width="120" height="60" as="geometry" />
        </mxCell>
        <mxCell id="jC5KR1oz6UxNJPEy1PF8-31" value="加T" style="whiteSpace=wrap;html=1;" vertex="1" parent="1">
          <mxGeometry x="1150" y="1290" width="120" height="60" as="geometry" />
        </mxCell>
        <mxCell id="jC5KR1oz6UxNJPEy1PF8-51" value="" style="edgeStyle=orthogonalEdgeStyle;rounded=0;orthogonalLoop=1;jettySize=auto;html=1;" edge="1" parent="1" source="jC5KR1oz6UxNJPEy1PF8-32" target="jC5KR1oz6UxNJPEy1PF8-34">
          <mxGeometry relative="1" as="geometry" />
        </mxCell>
        <mxCell id="jC5KR1oz6UxNJPEy1PF8-32" value="询模型" style="whiteSpace=wrap;html=1;" vertex="1" parent="1">
          <mxGeometry x="1390" y="1040" width="120" height="60" as="geometry" />
        </mxCell>
        <mxCell id="jC5KR1oz6UxNJPEy1PF8-50" value="" style="edgeStyle=orthogonalEdgeStyle;rounded=0;orthogonalLoop=1;jettySize=auto;html=1;" edge="1" parent="1" source="jC5KR1oz6UxNJPEy1PF8-33" target="jC5KR1oz6UxNJPEy1PF8-32">
          <mxGeometry relative="1" as="geometry" />
        </mxCell>
        <mxCell id="jC5KR1oz6UxNJPEy1PF8-33" value="构造入参" style="whiteSpace=wrap;html=1;" vertex="1" parent="1">
          <mxGeometry x="1390" y="930" width="120" height="60" as="geometry" />
        </mxCell>
        <mxCell id="jC5KR1oz6UxNJPEy1PF8-52" value="" style="edgeStyle=orthogonalEdgeStyle;rounded=0;orthogonalLoop=1;jettySize=auto;html=1;" edge="1" parent="1" source="jC5KR1oz6UxNJPEy1PF8-34" target="jC5KR1oz6UxNJPEy1PF8-35">
          <mxGeometry relative="1" as="geometry" />
        </mxCell>
        <mxCell id="jC5KR1oz6UxNJPEy1PF8-34" value="过兜底T" style="whiteSpace=wrap;html=1;" vertex="1" parent="1">
          <mxGeometry x="1390" y="1169" width="120" height="60" as="geometry" />
        </mxCell>
        <mxCell id="jC5KR1oz6UxNJPEy1PF8-35" value="加T" style="whiteSpace=wrap;html=1;" vertex="1" parent="1">
          <mxGeometry x="1390" y="1290" width="120" height="60" as="geometry" />
        </mxCell>
        <mxCell id="jC5KR1oz6UxNJPEy1PF8-36" style="edgeStyle=orthogonalEdgeStyle;rounded=0;orthogonalLoop=1;jettySize=auto;html=1;entryX=0.365;entryY=0;entryDx=0;entryDy=0;entryPerimeter=0;" edge="1" parent="1" source="jC5KR1oz6UxNJPEy1PF8-5" target="jC5KR1oz6UxNJPEy1PF8-14">
          <mxGeometry relative="1" as="geometry">
            <Array as="points">
              <mxPoint x="1030" y="290" />
              <mxPoint x="1194" y="290" />
            </Array>
          </mxGeometry>
        </mxCell>
      </root>
    </mxGraphModel>
  </diagram>
</mxfile>
